<?xml version="1.0" encoding="UTF-8"?>
<svg id="Camada_2" data-name="Camada 2" xmlns="http://www.w3.org/2000/svg" viewBox="0 0 59.46 8.98">
  <defs>
    <style>
      .cls-1 {
        fill: #75c5bd;
      }
    </style>
  </defs>
  <g id="Camada_1-2" data-name="Camada 1">
    <g>
      <path class="cls-1" d="M5.48.46v1.64h-3.43v1.78h2.57v1.6h-2.57v3.41H0V.46h5.48Z"/>
      <path class="cls-1" d="M8.62,0v8.88h-2.05V0h2.05Z"/>
      <path class="cls-1" d="M11.38,8.56c-.52-.28-.94-.68-1.24-1.2-.3-.52-.45-1.13-.45-1.82s.15-1.29.46-1.82.72-.93,1.25-1.21c.53-.28,1.12-.42,1.78-.42s1.25.14,1.78.42c.53.28.94.68,1.25,1.21s.46,1.13.46,1.82-.15,1.29-.46,1.82c-.31.52-.73.93-1.26,1.21-.53.28-1.13.42-1.78.42s-1.25-.14-1.77-.42ZM14.15,6.77c.28-.29.41-.7.41-1.24s-.13-.95-.4-1.24c-.27-.29-.6-.43-.99-.43s-.73.14-1,.43c-.26.28-.4.7-.4,1.24s.13.95.39,1.24c.26.29.59.43.98.43s.73-.14,1-.43Z"/>
      <path class="cls-1" d="M27.36,2.18l-1.81,6.7h-2.27l-1.06-4.34-1.09,4.34h-2.26l-1.82-6.7h2.05l.95,4.79,1.13-4.79h2.17l1.14,4.76.94-4.76h1.93Z"/>
      <path class="cls-1" d="M28.12,3.71c.26-.52.61-.92,1.06-1.2.45-.28.95-.42,1.5-.42.44,0,.84.09,1.21.28.36.18.65.43.86.74V0h2.05v8.88h-2.05v-.96c-.19.32-.47.58-.82.77-.36.19-.77.29-1.24.29-.55,0-1.05-.14-1.5-.43s-.8-.69-1.06-1.21c-.26-.52-.39-1.13-.39-1.82s.13-1.29.39-1.81ZM32.32,4.32c-.28-.3-.63-.44-1.04-.44s-.75.15-1.04.44c-.28.29-.43.69-.43,1.21s.14.92.43,1.22c.28.3.63.45,1.04.45s.75-.15,1.04-.44.43-.7.43-1.21-.14-.92-.43-1.21Z"/>
      <path class="cls-1" d="M42.9,2.18v6.7h-2.05v-.91c-.21.3-.49.53-.85.71-.36.18-.75.27-1.18.27-.51,0-.96-.11-1.36-.34-.39-.23-.7-.56-.91-.99-.22-.43-.32-.94-.32-1.52v-3.91h2.04v3.64c0,.45.12.8.35,1.04.23.25.54.37.94.37s.72-.12.95-.37c.23-.25.35-.6.35-1.04v-3.64h2.05Z"/>
      <path class="cls-1" d="M46.43,0v8.88h-2.05V0h2.05Z"/>
      <path class="cls-1" d="M54.19,6.02h-4.64c.03.42.17.73.4.95.24.22.53.33.87.33.51,0,.87-.22,1.07-.65h2.18c-.11.44-.31.84-.61,1.19-.29.35-.66.63-1.1.83-.44.2-.93.3-1.48.3-.66,0-1.24-.14-1.75-.42-.51-.28-.91-.68-1.2-1.2-.29-.52-.43-1.13-.43-1.82s.14-1.3.43-1.82.68-.92,1.19-1.2c.51-.28,1.1-.42,1.76-.42s1.22.14,1.73.41.9.66,1.18,1.16c.28.5.43,1.09.43,1.76,0,.19-.01.39-.04.6ZM52.13,4.88c0-.35-.12-.63-.36-.84-.24-.21-.54-.31-.9-.31s-.63.1-.87.3c-.24.2-.38.48-.44.85h2.57Z"/>
      <path class="cls-1" d="M58.26,2.43c.36-.21.76-.32,1.2-.32v2.17h-.56c-.51,0-.9.11-1.15.33-.26.22-.38.61-.38,1.16v3.11h-2.05V2.18h2.05v1.12c.24-.37.54-.66.9-.87Z"/>
    </g>
  </g>
</svg>